<svg width="64" height="64" viewBox="0 0 64 64" fill="none" xmlns="http://www.w3.org/2000/svg" aria-hidden="true">
  <g stroke="#c9a45c" stroke-linecap="round" fill="none">
    <!-- 外框轉角 -->
    <path d="M3 22 L3 3 L22 3" stroke-width="2.4"/>
    <!-- 內側細線 -->
    <path d="M9 17 L9 9 L17 9" stroke-width="1.1" opacity="0.6"/>
    <!-- 唐草卷曲 flourish -->
    <path d="M3 34 C 22 32 32 22 34 3" stroke-width="1.3" opacity="0.75"/>
    <path d="M15 15 c 6 0 11 5 11 11" stroke-width="1.2" opacity="0.85"/>
    <!-- 葉形點綴 -->
    <path d="M30 8 c 5 -1 8 2 7 7 c -5 1 -8 -2 -7 -7 Z" fill="#c9a45c" stroke="none" opacity="0.7"/>
    <path d="M8 30 c -1 5 2 8 7 7 c 1 -5 -2 -8 -7 -7 Z" fill="#c9a45c" stroke="none" opacity="0.7"/>
  </g>
  <circle cx="3.5" cy="3.5" r="2.4" fill="#e7c873"/>
</svg>
